<svg width="11" height="17" viewBox="0 0 11 17" fill="none" xmlns="http://www.w3.org/2000/svg">
<path d="M-1.16152e-06 9.93586L-1.17434e-06 9.53264C1.24403 9.98928 2.35227 10.634 3.25686 11.4272C4.16146 12.2205 4.84338 13.1457 5.26087 14.1461L5.26087 0.000597251L5.73913 0.00059723L5.73913 14.1461C6.15605 13.145 6.83771 12.2192 7.74234 11.4252C8.64696 10.6313 9.75549 9.98605 11 9.52901L11 9.93586C9.41674 10.5534 8.08813 11.4903 7.16006 12.6438C6.23199 13.7973 5.74035 15.1228 5.73913 16.4746L5.26087 16.4746C5.25965 15.1228 4.76801 13.7973 3.83994 12.6438C2.91187 11.4903 1.58326 10.5534 -1.16152e-06 9.93586Z" fill="black"/>
</svg>
