<svg width="11" height="17" viewBox="0 0 11 17" fill="none" xmlns="http://www.w3.org/2000/svg">
<path d="M11 6.53875L11 6.94197C9.75597 6.48533 8.64773 5.84063 7.74314 5.04736C6.83854 4.25409 6.15662 3.32893 5.73913 2.32852L5.73913 16.474L5.26087 16.474L5.26087 2.32852C4.84395 3.32959 4.16229 4.25546 3.25766 5.04938C2.35304 5.8433 1.24451 6.48856 -3.86428e-07 6.9456L-3.63792e-07 6.53875C1.58326 5.92124 2.91187 4.98429 3.83994 3.83079C4.76801 2.67729 5.25965 1.35184 5.26087 2.2996e-07L5.73913 2.50865e-07C5.74035 1.35184 6.23199 2.67729 7.16006 3.83079C8.08813 4.98429 9.41674 5.92124 11 6.53875Z" fill="black"/>
</svg>
